# Made in Blockbench 5.1.4
mtllib pipe64.mtl

o Pipe_ShapeIndexedFaceSet.47_ShapeIndexedFaceSet
v 0.059897 -0.093962 -0.155915
v 0.045323 0.111012 -0.105567
v 0.045323 -0.093985 -0.10566
v 0.106322 -0.094008 -0.057049
v -0.079954 0.11098 -0.036616
v -0.07152 0.110944 0.040925
v -0.079954 -0.094019 -0.03671
v -0.07152 0.110944 0.040925
v -0.07152 -0.094055 0.040832
v -0.079954 -0.094019 -0.03671
v -0.031343 0.111009 -0.097614
v -0.079954 0.11098 -0.036616
v -0.031343 -0.093989 -0.097707
v -0.079954 0.11098 -0.036616
v -0.079954 -0.094019 -0.03671
v -0.031343 -0.093989 -0.097707
v 0.045323 0.111012 -0.105567
v -0.031343 0.111009 -0.097614
v 0.045323 -0.093985 -0.10566
v -0.031343 0.111009 -0.097614
v -0.031343 -0.093989 -0.097707
v 0.045323 -0.093985 -0.10566
v 0.066539 0.110925 0.080226
v 0.066539 -0.094072 0.080132
v -0.011003 -0.094077 0.088567
v 0.106322 0.11099 -0.056956
v 0.045323 0.111012 -0.105567
v 0.106322 -0.094008 -0.057049
v 0.106322 0.11099 -0.056956
v 0.106322 -0.094008 -0.057049
v 0.114275 -0.094043 0.019616
v 0.114275 0.110954 0.01971
v 0.106322 0.11099 -0.056956
v 0.114275 -0.094043 0.019616
v 0.114275 0.110954 0.01971
v 0.114275 -0.094043 0.019616
v 0.066539 -0.094072 0.080132
v 0.066539 0.110925 0.080226
v 0.114275 0.110954 0.01971
v 0.066539 -0.094072 0.080132
v -0.011003 0.110921 0.08866
v 0.066539 0.110925 0.080226
v -0.011003 -0.094077 0.088567
v -0.056416 0.11103 -0.143169
v 0.059897 0.111036 -0.155821
v -0.056416 -0.093968 -0.143263
v -0.07152 0.110944 0.040925
v -0.011003 0.110921 0.08866
v -0.07152 -0.094055 0.040832
v -0.011003 0.110921 0.08866
v -0.011003 -0.094077 0.088567
v -0.07152 -0.094055 0.040832
v -0.117075 0.110931 0.065998
v -0.13021 0.110986 -0.05119
v -0.117075 -0.094067 0.065904
v -0.13021 0.110986 -0.05119
v -0.13021 -0.094012 -0.051283
v -0.117075 -0.094067 0.065904
v -0.13021 0.110986 -0.05119
v -0.056416 0.11103 -0.143169
v -0.13021 -0.094012 -0.051283
v -0.056416 0.11103 -0.143169
v -0.056416 -0.093968 -0.143263
v -0.13021 -0.094012 -0.051283
v 0.091612 0.110905 0.125781
v 0.091612 -0.094094 0.125687
v 0.16453 -0.09405 0.03419
v 0.059897 0.111036 -0.155821
v 0.059897 -0.093962 -0.155915
v -0.056416 -0.093968 -0.143263
v 0.059897 0.111036 -0.155821
v 0.151878 0.111003 -0.082029
v 0.059897 -0.093962 -0.155915
v 0.151878 0.111003 -0.082029
v 0.151878 -0.093996 -0.082122
v 0.16453 0.110947 0.034283
v 0.16453 -0.09405 0.03419
v 0.151878 -0.093996 -0.082122
v 0.151878 0.111003 -0.082029
v 0.16453 0.110947 0.034283
v 0.151878 -0.093996 -0.082122
v 0.16453 0.110947 0.034283
v 0.091612 0.110905 0.125781
v 0.16453 -0.09405 0.03419
v 0.091612 0.110905 0.125781
v -0.025577 0.110898 0.138915
v 0.091612 -0.094094 0.125687
v -0.025577 0.110898 0.138915
v -0.025577 -0.094101 0.138821
v 0.091612 -0.094094 0.125687
v -0.025577 0.110898 0.138915
v -0.117075 0.110931 0.065998
v -0.025577 -0.094101 0.138821
v -0.117075 0.110931 0.065998
v -0.117075 -0.094067 0.065904
v -0.025577 -0.094101 0.138821
vt 0.029411764705882353 0.987058101010101
vt 0.029411764705882353 0.3434343434343434
vt 0.9696691764705883 0.987058101010101
vt 0.029411764705882353 0.3434343434343434
vt 0.9696691764705883 0.3434343434343434
vt 0.9696691764705883 0.987058101010101
vt 0.029411764705882353 0.987058101010101
vt 0.029411764705882353 0.3434343434343434
vt 0.9696691764705883 0.987058101010101
vt 0.029411764705882353 0.3434343434343434
vt 0.9696691764705883 0.3434343434343434
vt 0.9696691764705883 0.987058101010101
vt 0.029411764705882353 0.987058101010101
vt 0.029411764705882353 0.3434343434343434
vt 0.9696691764705883 0.987058101010101
vt 0.029411764705882353 0.3434343434343434
vt 0.9696691764705883 0.3434343434343434
vt 0.9696691764705883 0.987058101010101
vt 0.029411764705882353 0.987058101010101
vt 0.029411764705882353 0.3434343434343434
vt 0.9696691764705883 0.987058101010101
vt 0.029411764705882353 0.987058101010101
vt 0.029411764705882353 0.3434343434343434
vt 0.9696691764705883 0.987058101010101
vt 0.029411764705882353 0.3434343434343434
vt 0.9696691764705883 0.3434343434343434
vt 0.9696691764705883 0.987058101010101
vt 0.029411764705882353 0.987058101010101
vt 0.029411764705882353 0.3434343434343434
vt 0.9696691764705883 0.987058101010101
vt 0.029411764705882353 0.3434343434343434
vt 0.9696691764705883 0.3434343434343434
vt 0.9696691764705883 0.987058101010101
vt 0.029411764705882353 0.987058101010101
vt 0.029411764705882353 0.3434343434343434
vt 0.9696691764705883 0.987058101010101
vt 0.029411764705882353 0.3434343434343434
vt 0.9696691764705883 0.3434343434343434
vt 0.9696691764705883 0.987058101010101
vt 0.029411764705882353 0.3434343434343434
vt 0.9696691764705883 0.3434343434343434
vt 0.9696691764705883 0.987058101010101
vt 0.029411764705882353 0.3434343434343434
vt 0.9696691764705883 0.3434343434343434
vt 0.9696691764705883 0.987058101010101
vt 0.029411764705882353 0.3434343434343434
vt 0.9696691764705883 0.3434343434343434
vt 0.9696691764705883 0.987058101010101
vt 0.029411764705882353 0.987058101010101
vt 0.029411764705882353 0.3434343434343434
vt 0.9696691764705883 0.987058101010101
vt 0.029411764705882353 0.3434343434343434
vt 0.9696691764705883 0.3434343434343434
vt 0.9696691764705883 0.987058101010101
vt 0.029411764705882353 0.987058101010101
vt 0.029411764705882353 0.3434343434343434
vt 0.9696691764705883 0.987058101010101
vt 0.029411764705882353 0.3434343434343434
vt 0.9696691764705883 0.3434343434343434
vt 0.9696691764705883 0.987058101010101
vt 0.029411764705882353 0.987058101010101
vt 0.029411764705882353 0.3434343434343434
vt 0.9696691764705883 0.987058101010101
vt 0.029411764705882353 0.987058101010101
vt 0.029411764705882353 0.3434343434343434
vt 0.9696691764705883 0.987058101010101
vt 0.029411764705882353 0.987058101010101
vt 0.029411764705882353 0.3434343434343434
vt 0.9696691764705883 0.987058101010101
vt 0.029411764705882353 0.3434343434343434
vt 0.9696691764705883 0.3434343434343434
vt 0.9696691764705883 0.987058101010101
vt 0.029411764705882353 0.987058101010101
vt 0.029411764705882353 0.3434343434343434
vt 0.9696691764705883 0.987058101010101
vt 0.029411764705882353 0.987058101010101
vt 0.029411764705882353 0.3434343434343434
vt 0.9696691764705883 0.987058101010101
vt 0.029411764705882353 0.3434343434343434
vt 0.9696691764705883 0.3434343434343434
vt 0.9696691764705883 0.987058101010101
vt 0.029411764705882353 0.3434343434343434
vt 0.9696691764705883 0.3434343434343434
vt 0.9696691764705883 0.987058101010101
vt 0.029411764705882353 0.3434343434343434
vt 0.9696691764705883 0.3434343434343434
vt 0.9696691764705883 0.987058101010101
vt 0.029411764705882353 0.987058101010101
vt 0.029411764705882353 0.3434343434343434
vt 0.9696691764705883 0.987058101010101
vt 0.029411764705882353 0.3434343434343434
vt 0.9696691764705883 0.3434343434343434
vt 0.9696691764705883 0.987058101010101
vt 0.029411764705882353 0.987058101010101
vt 0.029411764705882353 0.3434343434343434
vt 0.9696691764705883 0.987058101010101
vn 0.6232227381254004 0.00035478626631519944 -0.7820443036108529
vn -0.9941367070118339 -0.00004958203270760782 0.10813050130878667
vn -0.9941368569117879 -0.00004905393916304236 0.10812912338155072
vn -0.7820394726031401 0.00028273584057974133 -0.6232288370663277
vn -0.7820344950833168 0.0002857774801945786 -0.623235081515004
vn -0.10318200173048463 0.0004512436879965521 -0.9946623904109497
vn -0.10318200755364833 0.00045124148651269066 -0.9946623898078784
vn 0.10814183453395854 -0.0004558541094334146 0.9941353709735214
vn 0.6232227345682126 0.0003547845369199681 -0.7820443064464133
vn 0.9946623564633577 0.00004681044386178203 -0.10318330506212155
vn 0.9946624946570327 0.000047313401810700915 -0.10318197267008737
vn 0.7851338021856866 -0.000283987836177935 0.6193261112018094
vn 0.785133802185687 -0.0002839878361779846 0.6193261112018092
vn 0.10812915801539709 -0.00045100302413172966 0.9941367520533347
vn 0.10813760516341332 -0.0004558520966903836 0.9941358310353712
vn -0.6193119578876164 -0.00035618944059287845 0.7851449369043207
vn -0.6193119542593206 -0.0003561911794172954 0.7851449397654836
vn 0.9937770670940033 0.00005107566635972279 -0.11138733460011331
vn 0.9937769618769281 0.00005053273418323114 -0.11138827357090006
vn 0.7799960755481667 -0.0002838951780985276 0.6257843410736535
vn 0.7799993964278529 -0.0002869459157612572 0.6257802004172285
vn -0.7820332247090889 0.00028577821113306534 -0.6232366755751124
vn 0.10813760516341331 -0.0004558520966903851 0.9941358310353712
vn -0.625765889801718 -0.0003576670002941867 0.7800108481521145
vn -0.6257710515735576 -0.0003538584281865345 0.7800067088152108
vn -0.9941358381583228 -0.000049058666766326305 0.10813848936662677
vn -0.994135838249009 -0.000049058187764742065 0.10813848853315172
vn -0.7820365415219466 0.00028273888836050895 -0.6232325150239786
vn -0.11137806011384287 0.00045568579515617853 -0.9937780034171281
vn -0.11137806011384287 0.000455685795156175 -0.9937780034171281
vn 0.6232274310900445 0.00035859595814593 -0.7820405619568863
vn 0.623227433486965 0.0003585977065352538 -0.7820405600459195
usemtl m_ca3a5891-ffd6-72d8-d3be-46c0381f5bf7
f 3/1/1 2/2/1 4/3/1
f 6/4/2 5/5/2 7/6/2
f 9/7/3 8/8/3 10/9/3
f 12/10/4 11/11/4 13/12/4
f 15/13/5 14/14/5 16/15/5
f 18/16/6 17/17/6 19/18/6
f 21/19/7 20/20/7 22/21/7
f 24/22/8 23/23/8 25/24/8
f 27/25/9 26/26/9 28/27/9
f 30/28/10 29/29/10 31/30/10
f 33/31/11 32/32/11 34/33/11
f 36/34/12 35/35/12 37/36/12
f 39/37/13 38/38/13 40/39/13
f 42/40/14 41/41/14 43/42/14
f 45/43/15 44/44/15 46/45/15
f 48/46/16 47/47/16 49/48/16
f 51/49/17 50/50/17 52/51/17
f 54/52/18 53/53/18 55/54/18
f 57/55/19 56/56/19 58/57/19
f 60/58/20 59/59/20 61/60/20
f 63/61/21 62/62/21 64/63/21
f 66/64/22 65/65/22 67/66/22
f 69/67/23 68/68/23 70/69/23
f 72/70/24 71/71/24 73/72/24
f 75/73/25 74/74/25 1/75/25
f 77/76/26 76/77/26 78/78/26
f 80/79/27 79/80/27 81/81/27
f 83/82/28 82/83/28 84/84/28
f 86/85/29 85/86/29 87/87/29
f 89/88/30 88/89/30 90/90/30
f 92/91/31 91/92/31 93/93/31
f 95/94/32 94/95/32 96/96/32
o ShapeIndexedFaceSet.48_ShapeIndexedFaceSet
v 0.091612 0.110905 0.125781
v 0.066539 0.110925 0.080226
v -0.025577 0.110898 0.138915
v -0.031343 0.111009 -0.097614
v 0.045323 0.111012 -0.105567
v 0.059897 0.111036 -0.155821
v -0.056416 0.11103 -0.143169
v -0.031343 0.111009 -0.097614
v 0.059897 0.111036 -0.155821
v 0.059897 0.111036 -0.155821
v 0.045323 0.111012 -0.105567
v 0.151878 0.111003 -0.082029
v -0.031343 0.111009 -0.097614
v -0.056416 0.11103 -0.143169
v -0.13021 0.110986 -0.05119
v -0.079954 0.11098 -0.036616
v -0.031343 0.111009 -0.097614
v -0.13021 0.110986 -0.05119
v 0.045323 0.111012 -0.105567
v 0.106322 0.11099 -0.056956
v 0.151878 0.111003 -0.082029
v 0.151878 0.111003 -0.082029
v 0.106322 0.11099 -0.056956
v 0.16453 0.110947 0.034283
v 0.106322 0.11099 -0.056956
v 0.114275 0.110954 0.01971
v 0.16453 0.110947 0.034283
v 0.16453 0.110947 0.034283
v 0.114275 0.110954 0.01971
v 0.091612 0.110905 0.125781
v 0.114275 0.110954 0.01971
v 0.066539 0.110925 0.080226
v 0.091612 0.110905 0.125781
v -0.07152 0.110944 0.040925
v -0.079954 0.11098 -0.036616
v -0.117075 0.110931 0.065998
v 0.066539 0.110925 0.080226
v -0.011003 0.110921 0.08866
v -0.025577 0.110898 0.138915
v -0.025577 0.110898 0.138915
v -0.011003 0.110921 0.08866
v -0.117075 0.110931 0.065998
v -0.011003 0.110921 0.08866
v -0.07152 0.110944 0.040925
v -0.117075 0.110931 0.065998
v -0.079954 0.11098 -0.036616
v -0.13021 0.110986 -0.05119
v -0.117075 0.110931 0.065998
vt 0.2887562830626007 0.2529922745925174
vt 0.1687162503429987 0.29206348468273313
vt 0.10098672712947993 0.16561790364776907
vt 0.8156724726171317 0.18200447479966986
vt 0.7697969213410845 0.09742190368420756
vt 0.9558823529411765 0.18522606376331907
vt 0.7697969213410845 0.09742190368420756
vt 0.8911203581831275 0.05849299665881558
vt 0.9558823529411765 0.18522606376331907
vt 0.8156724726171317 0.18200447479966986
vt 0.9558823529411765 0.18522606376331907
vt 0.7743144422925108 0.3062144582768406
vt 0.8911203581831275 0.05849299665881558
vt 0.7697969213410845 0.09742190368420756
vt 0.6122586399629897 0.03179121822341713
vt 0.7697969213410845 0.09742190368420756
vt 0.5837559599159925 0.058922493013138344
vt 0.6122586399629897 0.02134689124586553
vt 0.6927824199512372 0.26266436445531494
vt 0.8156724726171317 0.18200447479966986
vt 0.7743144422925108 0.3062144582768406
vt 0.6927824199512372 0.26266436445531494
vt 0.7743144422925108 0.3062144582768406
vt 0.4479782786199775 0.3286380834565773
vt 0.47439672935397764 0.29206348468273313
vt 0.6927824199512372 0.26266436445531494
vt 0.4479782786199775 0.3286380834565773
vt 0.47439672935397764 0.29206348468273313
vt 0.4479782786199775 0.3286380834565773
vt 0.1687162503429987 0.29206348468273313
vt 0.2887562830626007 0.2529922745925174
vt 0.47439672935397764 0.29206348468273313
vt 0.1687162503429987 0.29206348468273313
vt 0.5837559599159925 0.058922493013138344
vt 0.3666536734411743 0.0884639163053802
vt 0.2851216510999012 0.04491382248385467
vt 0.2441641359089946 0.16855200654187885
vt 0.2887562830626007 0.2529922745925174
vt 0.10098672712947993 0.16561790364776907
vt 0.2441641359089946 0.16855200654187885
vt 0.10098672712947993 0.16561790364776907
vt 0.2851216510999012 0.04491382248385467
vt 0.3666536734411743 0.0884639163053802
vt 0.2441641359089946 0.16855200654187885
vt 0.2851216510999012 0.04491382248385467
vt 0.5860078330044871 0.03179121822341713
vt 0.5837559599159925 0.058922493013138344
vt 0.2851216510999012 0.04491382248385467
vn 0.000009916451208602223 -0.9999999011662082 -0.00044448761287388194
vn -0.00001073359168871355 -0.9999998844125445 -0.0004806866834713382
vn 0.0000013600759353365511 -0.9999998934018866 -0.00046172975404178336
vn 0.000019766373916305542 -0.9999998884874437 -0.00047184148904044776
vn 0.00001285508065213249 -0.9999998903789314 -0.00046805648414346637
vn 0.000015012827566211615 -0.9999998924891442 -0.000463461233505448
vn 0.000021457812457094187 -0.9999998848103591 -0.00047949852025040495
vn 0.00001922529810269933 -0.9999998829025397 -0.0004835548517275781
vn -0.000003220272206968163 -0.9999998899039763 -0.00046923519176283324
vn -0.000005020432727498213 -0.9999998927902338 -0.00046302733842066397
vn 0.000030004619267247514 -0.9999998957897199 -0.00045554393007736456
vn 0.000028154200312136495 -0.9999998904037162 -0.0004673327475781936
vn 0.0000018648863655997344 -0.9999998955166061 -0.00045712503717040717
vn 0.0000032991075139783556 -0.9999998957029462 -0.0004567091116957152
vn 0.000011884359766472486 -0.9999998764778842 -0.0004968933268874871
vn 0.00001727667538271087 -0.9999998888041144 -0.00047126773232223176
usemtl m_ca3a5891-ffd6-72d8-d3be-46c0381f5bf7
f 98/97/33 97/98/33 99/99/33
f 101/100/34 100/101/34 102/102/34
f 104/103/35 103/104/35 105/105/35
f 107/106/36 106/107/36 108/108/36
f 110/109/37 109/110/37 111/111/37
f 113/112/38 112/113/38 114/114/38
f 116/115/39 115/116/39 117/117/39
f 119/118/40 118/119/40 120/120/40
f 122/121/41 121/122/41 123/123/41
f 125/124/42 124/125/42 126/126/42
f 128/127/43 127/128/43 129/129/43
f 131/130/44 130/131/44 132/132/44
f 134/133/45 133/134/45 135/135/45
f 137/136/46 136/137/46 138/138/46
f 140/139/47 139/140/47 141/141/47
f 143/142/48 142/143/48 144/144/48