# Made in Blockbench 5.1.4
mtllib quadro64.mtl

o quadro
v 0.218125 0.75 0.015625
v 0.218125 0.75 -0.015625
v 0.218125 0.0625 0.015625
v 0.218125 0.0625 -0.015625
v -0.188125 0.75 0.015625
v -0.188125 0.75 -0.015625
v -0.188125 0.0625 0.015625
v -0.188125 0.0625 -0.015625
vt 0.9128787878787878 0.9253731343283582
vt 0.07575757575757576 0.9253731343283582
vt 0.07575757575757576 0.08208955223880599
vt 0.9128787878787878 0.08208955223880599
vt 0.9128787878787878 0.08208955223880599
vt 0.9128787878787878 0.9253731343283582
vt 0.07575757575757576 0.9253731343283582
vt 0.07575757575757576 0.08208955223880599
vt 0.07575757575757576 0.08208955223880599
vt 0.9128787878787878 0.08208955223880599
vt 0.9128787878787878 0.9253731343283582
vt 0.07575757575757576 0.9253731343283582
vt 0.9128787878787878 0.08208955223880599
vt 0.9128787878787878 0.9253731343283582
vt 0.07575757575757576 0.9253731343283582
vt 0.07575757575757576 0.08208955223880599
vt 0.9128787878787878 0.08208955223880599
vt 0.9128787878787878 0.9253731343283582
vt 0.07575757575757576 0.9253731343283582
vt 0.07575757575757576 0.08208955223880599
vt 0.9128787878787878 0.9253731343283582
vt 0.07575757575757576 0.9253731343283582
vt 0.07575757575757576 0.08208955223880599
vt 0.9128787878787878 0.08208955223880599
vn 1 0 0
vn -1 0 0
vn 0 1 0
vn 0 -1 0
vn 0 0 1
vn 0 0 -1
usemtl m_39a014df-3269-9cd2-cb8f-253e9e180d3c
f 2/1/1 1/2/1 3/3/1 4/4/1
f 7/5/2 5/6/2 6/7/2 8/8/2
f 5/9/3 1/10/3 2/11/3 6/12/3
f 4/13/4 3/14/4 7/15/4 8/16/4
f 3/17/5 1/18/5 5/19/5 7/20/5
f 6/21/6 2/22/6 4/23/6 8/24/6
o mesh
v -0.2190625 0.07812500000000007 0.03125
v -0.2190625 0.07812500000000007 -0.03125
v 0.2340625 0.07812499999999997 0.03125
v 0.2340625 0.07812499999999997 -0.03125
v -0.2190625 0.04687500000000007 0.03125
v -0.2190625 0.04687500000000007 -0.03125
v 0.2340625 0.04687499999999997 0.03125
v 0.2340625 0.04687499999999997 -0.03125
vt 0.045454545454545456 1
vt 0 1
vt 0 0.9552238805970149
vt 0.045454545454545456 0.9552238805970149
vt 0.045454545454545456 0.9552238805970149
vt 0.045454545454545456 1
vt 0 1
vt 0 0.9552238805970149
vt 0 0.9552238805970149
vt 0.045454545454545456 0.9552238805970149
vt 0.045454545454545456 1
vt 0 1
vt 0.045454545454545456 0.9552238805970149
vt 0.045454545454545456 1
vt 0 1
vt 0 0.9552238805970149
vt 0.045454545454545456 0.9552238805970149
vt 0.045454545454545456 1
vt 0 1
vt 0 0.9552238805970149
vt 0.9621212121212122 0.03731343283582089
vt 0.9621212121212119 0.11194029850746279
vt 0.007575757575757576 0.11194029850746257
vt 0.007575757575757576 0.03731343283582089
vn 2.220446049250313e-16 1 0
vn -2.220446049250313e-16 -1 0
vn -1 2.220446049250313e-16 0
vn 1 -2.220446049250313e-16 0
vn 0 0 1
vn 0 0 -1
usemtl m_39a014df-3269-9cd2-cb8f-253e9e180d3c
f 10/25/7 9/26/7 11/27/7 12/28/7
f 15/29/8 13/30/8 14/31/8 16/32/8
f 13/33/9 9/34/9 10/35/9 14/36/9
f 12/37/10 11/38/10 15/39/10 16/40/10
f 11/41/11 9/42/11 13/43/11 15/44/11
f 14/45/12 10/46/12 12/47/12 16/48/12
o mesh
v -0.1875 0.75 0.03125
v -0.1875 0.75 -0.03125
v -0.1875 0.0625 0.03125
v -0.1875 0.0625 -0.03125
v -0.21875 0.75 0.03125
v -0.21875 0.75 -0.03125
v -0.21875 0.0625 0.03125
v -0.21875 0.0625 -0.03125
vt 0.9772727272727273 0.9850746268656716
vt 0.9090909090909091 0.9850746268656716
vt 0.9090909090909091 0.02985074626865669
vt 0.9772727272727273 0.02985074626865669
vt 0.9772727272727273 0.02985074626865669
vt 0.9772727272727273 0.9850746268656716
vt 0.9090909090909091 0.9850746268656716
vt 0.9090909090909091 0.02985074626865669
vt 0.9090909090909091 0.02985074626865669
vt 0.9772727272727273 0.02985074626865669
vt 0.9772727272727273 0.9850746268656716
vt 0.9090909090909091 0.9850746268656716
vt 0.9772727272727273 0.02985074626865669
vt 0.9772727272727273 0.9850746268656716
vt 0.9090909090909091 0.9850746268656716
vt 0.9090909090909091 0.02985074626865669
vt 0.9772727272727273 0.02985074626865669
vt 0.9772727272727273 0.9850746268656716
vt 0.9090909090909091 0.9850746268656716
vt 0.9090909090909091 0.02985074626865669
vt 0.9772727272727273 0.9850746268656716
vt 0.9090909090909091 0.9850746268656716
vt 0.9090909090909091 0.03358208955223885
vt 0.9772727272727273 0.03358208955223885
vn 1 0 0
vn -1 0 0
vn 0 1 0
vn 0 -1 0
vn 0 0 1
vn 0 0 -1
usemtl m_39a014df-3269-9cd2-cb8f-253e9e180d3c
f 18/49/13 17/50/13 19/51/13 20/52/13
f 23/53/14 21/54/14 22/55/14 24/56/14
f 21/57/15 17/58/15 18/59/15 22/60/15
f 20/61/16 19/62/16 23/63/16 24/64/16
f 19/65/17 17/66/17 21/67/17 23/68/17
f 22/69/18 18/70/18 20/71/18 24/72/18
o mesh
v 0.234375 0.75 0.03125
v 0.234375 0.75 -0.03125
v 0.234375 0.0625 0.03125
v 0.234375 0.0625 -0.03125
v 0.203125 0.75 0.03125
v 0.203125 0.75 -0.03125
v 0.203125 0.0625 0.03125
v 0.203125 0.0625 -0.03125
vt 0.07575757575757576 0.9850746268656716
vt 0.015151515151515152 0.9850746268656716
vt 0.015151515151515152 0.03358208955223885
vt 0.07575757575757576 0.03358208955223885
vt 0.07575757575757576 0.03358208955223885
vt 0.07575757575757576 0.9850746268656716
vt 0.015151515151515152 0.9850746268656716
vt 0.015151515151515152 0.03358208955223885
vt 0.015151515151515152 0.03358208955223885
vt 0.07575757575757576 0.03358208955223885
vt 0.07575757575757576 0.9850746268656716
vt 0.015151515151515152 0.9850746268656716
vt 0.07575757575757576 0.03358208955223885
vt 0.07575757575757576 0.9850746268656716
vt 0.015151515151515152 0.9850746268656716
vt 0.015151515151515152 0.03358208955223885
vt 0.07575757575757576 0.03358208955223885
vt 0.07575757575757576 0.9850746268656716
vt 0.015151515151515152 0.9850746268656716
vt 0.015151515151515152 0.03358208955223885
vt 0.07954545454545454 0.9850746268656716
vt 0.015151515151515152 0.9850746268656716
vt 0.015151515151515152 0.02985074626865669
vt 0.07954545454545454 0.02985074626865669
vn 1 0 0
vn -1 0 0
vn 0 1 0
vn 0 -1 0
vn 0 0 1
vn 0 0 -1
usemtl m_39a014df-3269-9cd2-cb8f-253e9e180d3c
f 26/73/19 25/74/19 27/75/19 28/76/19
f 31/77/20 29/78/20 30/79/20 32/80/20
f 29/81/21 25/82/21 26/83/21 30/84/21
f 28/85/22 27/86/22 31/87/22 32/88/22
f 27/89/23 25/90/23 29/91/23 31/92/23
f 30/93/24 26/94/24 28/95/24 32/96/24
o mesh
v -0.2190625 0.7656250000000001 0.03125
v -0.2190625 0.7656250000000001 -0.03125
v 0.2340625 0.765625 0.03125
v 0.2340625 0.765625 -0.03125
v -0.2190625 0.7343750000000001 0.03125
v -0.2190625 0.7343750000000001 -0.03125
v 0.2340625 0.734375 0.03125
v 0.2340625 0.734375 -0.03125
vt 0.9810606060606061 0.9067164179104478
vt 0.9810606060606061 0.9850746268656716
vt 0.01893939393939394 0.9850746268656716
vt 0.01893939393939394 0.9067164179104478
vt 0.01893939393939394 0.9067164179104478
vt 0.9810606060606061 0.9067164179104478
vt 0.9810606060606061 0.9850746268656716
vt 0.01893939393939394 0.9850746268656716
vt 0.01893939393939394 0.9850746268656716
vt 0.01893939393939394 0.9067164179104478
vt 0.9810606060606061 0.9067164179104478
vt 0.9810606060606061 0.9850746268656716
vt 0.01893939393939394 0.9067164179104478
vt 0.9810606060606061 0.9067164179104478
vt 0.9810606060606061 0.9850746268656716
vt 0.01893939393939394 0.9850746268656716
vt 0.01893939393939394 0.9067164179104478
vt 0.9810606060606061 0.9067164179104478
vt 0.9810606060606061 0.9850746268656716
vt 0.01893939393939394 0.9850746268656716
vt 0.9810606060606061 0.9067164179104478
vt 0.9810606060606061 0.9850746268656716
vt 0.01893939393939394 0.9850746268656716
vt 0.01893939393939394 0.9067164179104478
vn 2.220446049250313e-16 1 0
vn -2.220446049250313e-16 -1 0
vn -1 2.220446049250313e-16 0
vn 1 -2.220446049250313e-16 0
vn 0 0 1
vn 0 0 -1
usemtl m_39a014df-3269-9cd2-cb8f-253e9e180d3c
f 34/97/25 33/98/25 35/99/25 36/100/25
f 39/101/26 37/102/26 38/103/26 40/104/26
f 37/105/27 33/106/27 34/107/27 38/108/27
f 36/109/28 35/110/28 39/111/28 40/112/28
f 35/113/29 33/114/29 37/115/29 39/116/29
f 38/117/30 34/118/30 36/119/30 40/120/30